<svg width="194" height="44" viewBox="0 0 194 44" fill="none" xmlns="http://www.w3.org/2000/svg">
<path fill-rule="evenodd" clip-rule="evenodd" d="M96.4436 43.8585H0.350555V0.633301H96.4436V43.8585Z" fill="#31CFB5"/>
<path fill-rule="evenodd" clip-rule="evenodd" d="M54.6022 6.3855H60.5267L63.1544 25.4681L65.7822 6.3855H71.5395L66.4989 38.0227H59.8219L54.6022 6.3855Z" fill="white"/>
<path fill-rule="evenodd" clip-rule="evenodd" d="M53.1569 25.8022L56.7403 38.0347H51.0667L48.4269 27.7594C47.9754 27.8203 47.5208 27.8562 47.0653 27.8668V38.0227H41.3559V6.3855H47.0653C53.6228 6.3855 56.7283 11.9348 56.8 17.1262C56.8817 18.7491 56.5967 20.3695 55.966 21.8673C55.3353 23.3652 54.3752 24.7019 53.1569 25.7784V25.8022ZM47.0653 12.09C49.7289 12.09 50.8517 14.4052 50.8875 16.8636C50.9233 19.322 49.6931 22.1385 47.0653 22.1743V12.078V12.09Z" fill="white"/>
<path fill-rule="evenodd" clip-rule="evenodd" d="M29.5786 6.3855H37.1633L41.9411 38.0227H36.2317L35.6344 33.1656H31.1075L30.4983 38.0227H24.8008L29.5786 6.3855V6.3855ZM35.0014 28.1055L33.3889 14.62L31.7525 28.1055H35.0014Z" fill="white"/>
<path fill-rule="evenodd" clip-rule="evenodd" d="M5.59416 6.3855H12.9519L15.4006 22.3533L17.8611 6.3855H25.2189V38.0227H19.5094V22.6039L17.0967 38.0824H13.7164L11.2917 22.6039V38.0227H5.59416V6.3855Z" fill="white"/>
<path fill-rule="evenodd" clip-rule="evenodd" d="M88.4767 32.2944H93.3142V38.0227H82.7672V6.3855H88.4767V32.2944Z" fill="white"/>
<path fill-rule="evenodd" clip-rule="evenodd" d="M76.7114 32.2944H81.8236V38.0227H71.0019V6.3855H81.8236V12.2213H76.7114V19.2982H81.8236V25.0981H76.7114V32.2944Z" fill="white"/>
<path fill-rule="evenodd" clip-rule="evenodd" d="M159.928 6.4093H163.583V38.0465H159.928V6.4093Z" fill="#31CFB5"/>
<path fill-rule="evenodd" clip-rule="evenodd" d="M144.795 6.4093H150.767C156.058 6.4093 157.934 9.0348 157.934 13.5697V30.8264C157.934 35.3852 156.106 37.9869 150.767 37.9869H144.795V6.4093ZM154.076 12.8537C154.076 11.1471 153.168 9.75083 150.492 9.75083H148.414V34.705H150.492C153.144 34.705 154.076 33.2968 154.076 31.6021V12.8537Z" fill="#31CFB5"/>
<path fill-rule="evenodd" clip-rule="evenodd" d="M129.649 6.4093H133.292V32.4495C133.292 33.4519 133.555 34.9556 135.609 34.9556H136.577C138.727 34.9556 138.894 33.4519 138.894 32.4495V6.4093H142.549V32.6643C142.549 36.6145 140.304 38.3091 137.318 38.3091H134.929C131.943 38.3091 129.601 36.4832 129.601 32.6643V6.4093H129.649Z" fill="#31CFB5"/>
<path fill-rule="evenodd" clip-rule="evenodd" d="M169.424 32.4496C169.373 32.78 169.398 33.1178 169.498 33.4369C169.599 33.756 169.771 34.0478 170.001 34.2899C170.232 34.5321 170.516 34.718 170.83 34.8335C171.144 34.9489 171.48 34.9907 171.813 34.9557H172.804C175.014 34.9557 175.193 33.452 175.193 32.4496V12.0065C175.193 11.004 175.014 9.50032 172.804 9.50032H171.813C171.48 9.46532 171.144 9.50716 170.83 9.62259C170.516 9.73802 170.232 9.92398 170.001 10.1661C169.771 10.4083 169.599 10.7001 169.498 11.0192C169.398 11.3383 169.373 11.676 169.424 12.0065V32.4496ZM178.98 32.6524C178.98 36.6026 176.686 38.2973 173.593 38.2973H171.204C168.122 38.2973 165.709 36.4713 165.709 32.6524V11.8036C165.709 7.98469 168.098 6.14685 171.204 6.14685H173.593C176.686 6.14685 178.98 7.85341 178.98 11.8036V32.6524Z" fill="#31CFB5"/>
<path fill-rule="evenodd" clip-rule="evenodd" d="M123.581 9.79858V38.0465H119.926V9.79858H115.184V6.4093H128.335V9.79858H123.581Z" fill="#31CFB5"/>
<path fill-rule="evenodd" clip-rule="evenodd" d="M185.848 6.12292C182.766 6.12292 180.353 7.98463 180.353 11.8155V15.2763C180.353 17.7706 180.771 19.0595 181.703 20.2171C182.635 21.3747 185.382 23.1409 187.592 24.7878C188.918 25.7783 189.407 26.5063 189.407 27.6281V32.4853C189.407 33.4878 189.312 35.0511 187.186 35.0511H186.278C184.068 35.0511 183.949 33.4878 183.949 32.4853V28.189H180.365V32.7478C180.365 36.6861 182.527 38.4284 185.764 38.4284H187.58C190.864 38.4284 193.074 36.6264 193.074 32.724V27.7117C193.143 26.6985 192.953 25.6845 192.52 24.7656C192.087 23.8467 191.427 23.0534 190.602 22.4607C189.216 21.3269 186.899 19.7994 185.477 18.6776C184.995 18.3929 184.607 17.9733 184.361 17.4707C184.115 16.968 184.021 16.4043 184.092 15.8492V12.078C184.092 11.0636 184.199 9.52411 186.326 9.52411H187.054C189.264 9.52411 189.3 11.0756 189.3 12.078V14.787H193.062V11.8751C193.062 7.92494 190.673 6.18258 187.627 6.18258L185.848 6.12292Z" fill="#31CFB5"/>
<path fill-rule="evenodd" clip-rule="evenodd" d="M107.253 6.12292C104.16 6.12292 101.759 7.98463 101.759 11.8155V15.2763C101.759 17.7706 102.177 19.0595 103.109 20.2171C104.04 21.3747 106.776 23.1409 108.997 24.7878C110.311 25.7783 110.813 26.5063 110.813 27.6281V32.4853C110.813 33.4878 110.705 35.0511 108.591 35.0511H107.707C105.486 35.0511 105.318 33.4878 105.318 32.4853V28.189H101.735V32.7478C101.735 36.6861 103.897 38.4284 107.134 38.4284H108.937C112.234 38.4284 114.444 36.6264 114.444 32.724V27.7117C114.513 26.6985 114.322 25.6845 113.89 24.7656C113.457 23.8467 112.797 23.0534 111.971 22.4607C110.574 21.3269 108.269 19.7994 106.847 18.6776C106.365 18.3929 105.977 17.9733 105.73 17.4707C105.484 16.968 105.391 16.4043 105.462 15.8492V12.078C105.462 11.0636 105.569 9.52411 107.695 9.52411H108.412C110.634 9.52411 110.669 11.0756 110.669 12.078V14.787H114.432V11.8751C114.432 7.92494 112.043 6.18258 108.997 6.18258L107.253 6.12292Z" fill="#31CFB5"/>
<path fill-rule="evenodd" clip-rule="evenodd" d="M101.699 0.633301H193.122V2.35181H101.699V0.633301Z" fill="#31CFB5"/>
<path fill-rule="evenodd" clip-rule="evenodd" d="M101.699 42.14H193.122V43.8585H101.699V42.14Z" fill="#31CFB5"/>
</svg>
