<svg width="331" height="62" viewBox="0 0 331 62" fill="none" xmlns="http://www.w3.org/2000/svg">
<path d="M50.6303 0H16V32.2665L33.3151 44L50.2608 32.2665L50.6303 0Z" class="sf-background"/>
<path d="M39.8161 9.45461V9.44727H28.844C24.1254 9.44727 24.1254 14.4312 24.1254 14.4312C24.1254 18.2356 26.5897 19.1277 27.5123 19.3324H23.9531V22.9653C23.9531 25.616 25.8516 26.1162 27.0018 26.1755V26.2093H27.8554V26.15V22.9653V22.6881V19.3873L27.872 15.2449C27.872 12.8367 30.9471 12.9675 30.9471 12.9675H38.9596V16.2644H31.3734V19.7875H38.9474L38.9444 20.4102C38.9444 22.8203 35.8698 22.6881 35.8698 22.6881H31.3734V26.2098H37.9734C42.6915 26.2098 42.6915 21.2233 42.6915 21.2233C42.6915 17.0766 39.9913 16.4221 39.3262 16.3192L42.8619 16.3109V12.6701C42.8619 10.017 40.9643 9.51732 39.8161 9.45461Z" class="sf-mark"/>
</svg>
